<?xml version="1.0" standalone="no"?>
<!DOCTYPE svg PUBLIC "-//W3C//DTD SVG 20010904//EN"
 "http://www.w3.org/TR/2001/REC-SVG-20010904/DTD/svg10.dtd">
<svg version="1.0" xmlns="http://www.w3.org/2000/svg"
 width="512.000000pt" height="512.000000pt" viewBox="0 0 512.000000 512.000000"
 preserveAspectRatio="xMidYMid meet">
<metadata>
Created by potrace 1.14, written by Peter Selinger 2001-2017
</metadata>
<g transform="translate(0.000000,512.000000) scale(0.100000,-0.100000)"
fill="#000000" stroke="none">
<path d="M2434 5108 c-2 -4 -16 -5 -29 -2 -14 2 -25 0 -25 -4 0 -5 -12 -7 -26
-4 -16 3 -25 1 -21 -5 3 -5 -6 -8 -24 -5 -16 2 -29 0 -29 -5 0 -6 -11 -9 -25
-7 -14 1 -31 -3 -38 -10 -7 -7 -18 -11 -24 -9 -7 3 -27 -2 -45 -10 -51 -23
-72 -30 -80 -29 -5 1 -8 -2 -8 -8 0 -5 -6 -7 -14 -4 -7 3 -20 -1 -28 -9 -8 -8
-24 -18 -36 -22 -13 -3 -51 -23 -85 -42 -34 -20 -76 -44 -94 -53 -18 -10 -30
-20 -28 -22 3 -3 -7 -11 -23 -18 -15 -8 -42 -27 -59 -44 -18 -16 -33 -27 -33
-23 0 4 -27 -19 -60 -51 -33 -33 -60 -57 -60 -53 0 3 -12 -8 -27 -24 -16 -16
-27 -33 -25 -38 1 -5 -2 -5 -8 -2 -7 4 -14 -2 -17 -14 -3 -11 -9 -18 -14 -15
-5 3 -9 1 -9 -5 0 -5 -16 -26 -37 -46 -20 -19 -32 -35 -28 -35 4 0 -2 -8 -13
-19 -12 -10 -22 -22 -22 -26 0 -4 -12 -18 -27 -31 -16 -13 -24 -24 -18 -24 5
0 -1 -7 -13 -16 -12 -8 -20 -20 -17 -25 4 -5 -1 -12 -9 -15 -9 -3 -16 -12 -16
-20 0 -8 -3 -14 -8 -14 -4 0 -13 -15 -21 -32 -8 -18 -17 -35 -21 -38 -10 -8
-80 -130 -80 -141 0 -5 -5 -9 -12 -9 -6 0 -8 -3 -5 -6 4 -4 -2 -19 -13 -34
-11 -15 -17 -30 -13 -34 3 -3 1 -6 -5 -6 -7 0 -11 -3 -10 -7 1 -5 -3 -18 -10
-31 -7 -12 -10 -28 -6 -34 4 -7 3 -8 -4 -4 -8 5 -12 0 -12 -13 0 -12 -5 -21
-11 -21 -6 0 -9 -9 -6 -20 3 -11 1 -18 -4 -14 -8 5 -13 -9 -10 -28 0 -5 -4 -8
-11 -8 -6 0 -9 -3 -6 -6 4 -3 -2 -24 -12 -47 -10 -23 -16 -45 -14 -49 3 -4 0
-8 -5 -8 -6 0 -11 -8 -11 -18 0 -10 -6 -24 -12 -31 -11 -11 -10 -12 1 -6 9 5
8 0 -3 -17 -9 -14 -13 -28 -9 -31 3 -4 2 -7 -4 -7 -5 0 -10 -6 -11 -12 -1 -15
-7 -37 -15 -58 -4 -13 -24 -90 -45 -180 -3 -14 -5 -37 -5 -52 0 -15 -4 -25 -8
-22 -5 3 -9 -9 -9 -25 0 -41 0 -43 -11 -63 -7 -12 -6 -18 2 -18 8 0 8 -4 -1
-15 -6 -8 -9 -19 -6 -24 4 -5 3 -12 -2 -15 -5 -3 -8 -27 -8 -55 1 -27 -2 -47
-7 -44 -7 4 -8 -11 -11 -129 0 -32 -3 -58 -6 -58 -11 0 -7 -165 4 -172 8 -6 8
-8 -1 -8 -9 0 -11 -36 -8 -137 2 -76 4 -138 5 -138 1 0 3 -22 5 -50 2 -27 6
-68 9 -90 2 -22 7 -65 11 -95 6 -56 12 -95 15 -95 1 0 4 -11 5 -25 6 -41 14
-85 15 -85 1 0 3 -9 5 -20 2 -11 7 -36 11 -55 4 -19 7 -38 6 -42 -1 -5 2 -8 7
-8 5 0 8 -8 7 -17 -2 -10 3 -33 11 -50 7 -18 10 -33 7 -33 -4 0 -2 -6 4 -13 6
-7 13 -24 15 -37 4 -28 14 -57 28 -82 5 -10 9 -29 9 -43 0 -14 4 -25 9 -25 5
0 12 -16 15 -35 4 -20 11 -33 16 -30 6 3 7 -1 4 -9 -3 -9 -1 -16 6 -16 6 0 9
-4 6 -8 -3 -5 1 -20 9 -35 7 -14 11 -28 8 -31 -3 -3 2 -8 11 -12 9 -3 13 -10
10 -15 -3 -5 2 -19 10 -31 9 -12 16 -30 16 -40 0 -10 4 -18 9 -18 5 0 15 -17
22 -38 6 -20 15 -39 18 -42 3 -3 17 -25 30 -50 14 -25 29 -48 35 -52 7 -5 7
-8 1 -8 -6 0 -6 -3 0 -8 6 -4 27 -33 48 -64 21 -31 44 -64 53 -72 8 -9 13 -16
9 -16 -6 0 7 -17 41 -55 12 -13 20 -26 17 -29 -3 -2 4 -11 16 -18 12 -7 21
-17 21 -22 0 -4 18 -26 40 -47 22 -22 40 -41 40 -43 0 -3 11 -17 25 -32 14
-15 25 -24 25 -20 0 4 12 -6 26 -23 14 -17 31 -28 36 -24 6 3 8 2 5 -4 -6 -10
0 -17 73 -73 25 -19 49 -40 53 -47 4 -7 12 -13 18 -13 10 0 62 -35 87 -58 8
-7 19 -9 25 -5 8 5 8 2 0 -9 -16 -18 -7 -28 24 -28 13 0 23 -4 23 -9 0 -6 8
-8 18 -6 11 2 19 -3 19 -11 0 -8 -4 -14 -9 -14 -4 0 -8 5 -8 11 0 5 -5 7 -10
4 -6 -4 -8 -10 -6 -14 6 -9 -40 -7 -69 4 -14 5 -12 -1 10 -20 21 -19 23 -24 8
-16 -12 6 -23 8 -26 3 -2 -4 -2 -2 -1 5 5 19 -13 25 -20 8 -4 -10 -14 -14 -31
-11 -13 3 -27 0 -30 -5 -6 -9 7 -13 39 -9 20 2 38 -18 30 -32 -3 -4 -14 -8
-25 -8 -10 0 -19 -4 -19 -10 0 -5 8 -7 18 -3 9 3 14 3 11 -1 -4 -4 -19 -9 -35
-11 -16 -2 -23 -2 -16 1 6 3 12 10 12 16 0 6 -6 6 -15 -2 -8 -7 -15 -11 -16
-9 -5 20 -4 57 2 54 10 -7 6 16 -7 39 -10 16 -12 16 -17 2 -4 -9 -12 -16 -18
-16 -8 0 -7 5 2 17 9 10 9 14 2 10 -7 -4 -22 -22 -35 -39 -12 -17 -17 -28 -10
-24 11 7 17 -5 13 -27 -1 -5 3 -6 8 -3 5 4 12 2 16 -4 4 -6 11 -8 16 -4 15 9
38 -15 32 -34 -4 -15 -3 -15 6 -2 10 13 13 13 26 -4 8 -11 15 -14 15 -7 0 7 5
9 13 5 7 -5 6 0 -3 11 -14 17 -13 18 3 12 9 -3 17 -3 17 1 0 5 7 17 15 28 15
19 15 19 8 -1 -6 -18 -5 -19 13 -5 18 14 18 14 5 -2 -7 -10 -17 -16 -21 -13
-4 3 -11 -2 -14 -11 -8 -21 -8 -24 5 -24 5 0 8 3 5 8 -2 4 7 12 20 19 13 6 22
8 19 3 -3 -4 2 -11 10 -14 9 -3 18 1 22 9 4 11 9 13 18 5 6 -5 15 -7 19 -3 4
4 4 -1 0 -12 -5 -11 -9 -14 -12 -7 -2 7 -8 12 -13 12 -6 0 -8 -4 -4 -9 3 -5 0
-13 -6 -17 -8 -5 -9 -3 -4 7 6 11 5 12 -6 2 -14 -14 -30 -17 -26 -6 1 5 -1 9
-6 11 -4 1 -7 0 -7 -3 0 -3 0 -10 0 -16 0 -6 8 -9 18 -7 9 2 23 -3 30 -12 10
-13 11 -12 5 4 -4 13 -3 17 5 12 6 -3 13 -2 17 4 11 18 48 -9 42 -31 -3 -11
-1 -16 5 -13 5 3 8 15 5 25 -5 18 7 27 16 12 2 -5 2 -2 1 5 -2 6 1 13 6 13 6
1 14 2 19 3 17 2 24 16 8 16 -9 0 -19 5 -23 12 -4 6 -3 9 2 6 5 -3 17 -8 28
-12 13 -4 15 -10 8 -19 -6 -6 -10 -15 -9 -19 1 -3 -2 -10 -7 -15 -5 -4 -6 -3
-2 4 3 6 3 14 -2 17 -4 2 -8 -4 -9 -14 -1 -12 5 -18 17 -17 10 1 16 5 14 9 -3
4 -1 8 5 8 5 0 13 -9 16 -21 7 -20 8 -19 26 10 11 18 23 29 28 26 5 -3 12 3
14 12 4 17 5 17 6 0 0 -10 5 -15 11 -12 6 3 10 2 10 -2 0 -5 9 -9 20 -10 11
-1 20 4 20 10 0 8 3 8 8 2 11 -16 46 -19 36 -3 -6 10 -5 10 9 0 9 -8 21 -11
27 -7 22 14 49 13 54 -2 4 -9 4 -18 1 -21 -3 -3 -5 -1 -5 5 0 6 -11 11 -25 11
-14 0 -25 -4 -25 -9 0 -8 -33 -5 -50 6 -6 3 -10 3 -11 -2 0 -4 -2 -18 -3 -30
-1 -12 1 -20 6 -17 5 4 7 12 4 20 -3 8 1 14 10 14 9 0 12 -5 8 -12 -6 -10 -5
-10 8 -1 15 13 28 8 28 -9 0 -5 -5 -6 -12 -2 -7 5 -8 3 -3 -6 6 -10 10 -10 20
3 11 15 13 15 29 -1 14 -13 20 -14 23 -4 3 6 10 9 16 5 7 -4 6 1 -2 10 -9 12
-10 17 -2 17 7 0 10 4 6 9 -3 6 4 9 15 8 19 -1 19 -3 5 -13 -13 -10 -12 -14
12 -29 l28 -18 -19 21 c-11 12 -14 22 -8 22 7 0 12 8 13 18 0 14 2 14 7 2 4
-8 16 -17 27 -18 11 -2 23 -9 27 -15 5 -9 11 -8 20 2 11 11 11 13 -1 6 -10 -6
-12 -4 -7 4 4 6 2 18 -4 26 -7 8 -10 15 -6 15 3 0 13 -12 23 -26 16 -25 16
-27 -8 -45 -18 -14 -19 -18 -5 -12 14 5 17 3 11 -7 -5 -9 -4 -11 4 -6 6 4 9
11 6 16 -3 5 2 13 11 18 15 8 15 11 -2 37 l-18 28 22 -12 c17 -9 22 -9 22 0 0
7 3 9 6 6 4 -4 1 -13 -6 -22 -10 -12 -10 -15 0 -15 7 0 10 -7 6 -15 -4 -13 -2
-14 14 -5 11 6 20 13 20 16 0 3 -4 3 -9 -1 -16 -9 -20 9 -6 28 8 12 15 14 20
8 3 -6 1 -11 -5 -11 -6 0 -9 -4 -6 -8 4 -7 28 -8 56 -3 3 1 -2 6 -10 12 -12 9
-12 10 4 5 10 -4 25 -1 32 5 10 8 14 8 14 0 0 -6 -4 -11 -10 -11 -19 0 -9 -15
26 -37 19 -13 32 -18 29 -13 -3 6 -1 10 4 10 6 0 11 -5 11 -12 0 -6 2 -9 5 -6
13 12 -8 36 -27 33 -20 -4 -20 -3 2 20 25 26 41 35 21 12 -8 -11 -6 -18 9 -32
12 -11 18 -25 15 -34 -5 -12 -3 -13 5 -5 9 9 8 18 -4 36 -10 16 -12 28 -6 38
9 13 10 13 11 0 1 -8 1 -18 1 -21 -1 -4 8 -15 20 -25 21 -19 21 -19 9 3 -14
27 -14 33 0 33 5 0 7 -5 4 -10 -3 -6 3 -10 14 -10 31 0 50 10 45 24 -3 7 2 13
10 13 8 0 12 -6 9 -13 -3 -8 2 -11 14 -9 10 2 22 4 26 4 5 1 6 5 2 10 -3 5 -2
12 3 15 4 2 9 -6 10 -19 1 -20 -2 -22 -33 -20 -19 1 -40 -4 -46 -11 -6 -7 -18
-10 -27 -7 -14 4 -14 3 -3 -5 15 -11 41 -5 41 8 0 7 24 7 40 -1 3 -1 12 -3 20
-3 8 -1 14 -7 13 -14 -2 -7 2 -12 7 -12 6 0 10 8 8 17 -2 12 4 18 20 19 12 1
22 -3 22 -7 0 -5 5 -9 11 -9 5 0 7 5 3 12 -5 7 -2 9 8 5 9 -3 21 0 28 6 10 9
12 9 7 -4 -3 -9 0 -16 9 -16 17 0 18 13 2 24 -19 11 -68 12 -75 1 -3 -6 -9 -4
-14 3 -8 12 -11 11 -20 -1 -9 -13 -10 -13 -6 0 2 9 14 14 26 13 12 -2 20 1 17
5 -7 12 26 11 42 -1 6 -5 12 -7 12 -3 0 4 14 0 30 -9 17 -9 30 -12 30 -8 0 5
5 1 10 -7 5 -8 10 -10 10 -4 0 6 -3 14 -7 18 -4 3 -8 17 -9 29 -2 12 0 16 2 9
3 -6 11 -9 17 -5 7 4 5 -2 -3 -12 -14 -17 -13 -18 2 -12 12 4 15 2 12 -7 -3
-8 -1 -17 5 -21 6 -3 9 0 5 8 -3 9 1 14 13 14 36 0 42 3 37 18 -4 8 -10 12
-15 9 -5 -3 -7 -10 -3 -15 3 -5 0 -8 -8 -7 -23 5 -39 38 -17 38 5 0 7 -5 3
-11 -4 -7 -1 -10 7 -7 8 3 13 12 11 19 -3 11 -1 11 9 2 6 -6 18 -9 25 -6 20 7
14 -40 -6 -49 -12 -5 -11 -7 3 -7 12 -1 16 -6 11 -13 -4 -8 -3 -10 2 -5 5 5
10 13 10 18 1 5 2 14 3 19 2 20 21 9 22 -12 1 -22 1 -22 9 2 4 14 8 21 9 16 1
-5 8 -3 16 4 12 10 18 10 32 -1 11 -10 14 -10 9 -2 -4 7 -2 13 3 13 6 0 11 3
11 8 0 4 -16 7 -35 8 -23 0 -34 -3 -32 -11 3 -6 -6 -11 -23 -10 -16 0 -26 4
-23 8 3 5 11 6 19 3 13 -5 19 6 15 27 -1 4 7 3 18 -3 24 -12 34 -13 27 -1 -7
11 13 9 32 -2 15 -10 16 5 0 21 -7 7 -8 12 -4 12 5 0 14 -7 21 -16 11 -15 12
-15 18 5 3 15 1 21 -11 21 -8 0 -12 3 -9 7 4 3 18 0 32 -7 14 -7 28 -10 32 -7
3 4 12 2 20 -4 21 -18 15 5 -8 29 -11 12 -25 19 -31 15 -8 -4 -5 -9 8 -14 13
-5 14 -8 4 -8 -8 0 -21 3 -28 8 -11 6 -10 10 5 16 34 15 58 10 55 -10 -3 -15
-1 -17 11 -7 22 18 28 3 11 -30 -15 -28 -16 -29 -29 -11 -8 10 -15 13 -15 7 0
-18 32 -42 37 -27 2 7 11 9 19 6 12 -5 19 7 15 30 -1 9 13 9 22 0 4 -3 1 -13
-5 -22 -7 -9 -8 -13 -4 -9 5 4 16 2 25 -5 14 -11 14 -10 2 6 -7 9 -10 17 -6
17 4 0 3 6 -2 13 -14 16 -12 49 1 44 6 -2 10 -13 8 -23 -2 -15 -1 -16 7 -5 15
23 1 43 -26 36 -15 -3 -22 -2 -19 4 13 21 -65 47 -94 31 -20 -10 -46 10 -32
25 4 5 1 5 -5 1 -8 -4 -13 -2 -13 6 0 8 -5 6 -11 -5 -7 -12 -15 -15 -22 -9
-15 11 -48 12 -41 1 2 -5 11 -6 19 -2 8 3 15 0 15 -7 0 -7 7 -10 16 -6 10 4
13 2 8 -6 -5 -7 -3 -8 6 -3 9 6 11 4 5 -6 -7 -11 -5 -11 10 1 10 8 16 10 12 4
-4 -8 6 -10 34 -8 22 2 37 -1 34 -6 -3 -5 -19 -7 -35 -5 -18 2 -30 -2 -34 -11
-3 -8 -11 -14 -18 -13 -10 0 -10 2 0 6 6 2 12 9 12 14 0 6 -5 7 -11 3 -6 -3
-15 0 -20 7 -7 11 -12 12 -29 1 -11 -6 -23 -12 -27 -12 -5 0 0 5 10 11 9 5 17
15 17 21 0 7 -4 7 -13 -1 -8 -6 -17 -8 -20 -4 -4 3 -7 -2 -8 -13 0 -16 -2 -15
-10 5 -7 18 -12 21 -23 12 -10 -9 -16 -9 -21 -1 -4 6 -3 10 2 9 4 -1 11 0 16
1 4 1 10 3 15 4 4 1 19 10 35 20 23 16 30 16 45 5 13 -11 13 -9 -2 9 -17 19
-17 22 -3 16 10 -3 17 -1 17 6 0 6 5 8 10 5 6 -3 10 -2 10 3 0 5 12 15 28 23
15 8 29 17 32 21 3 4 38 32 78 61 39 30 69 57 65 61 -3 3 0 6 7 6 7 0 26 13
41 30 16 16 29 28 29 26 0 -2 15 10 33 27 18 18 31 35 29 40 -2 4 5 7 14 7 10
0 15 3 11 6 -3 3 5 16 19 29 24 22 60 65 99 119 11 15 28 37 38 48 9 12 17 24
17 27 0 3 13 22 30 41 16 19 28 36 26 38 -2 2 7 15 20 29 13 14 21 29 18 34
-3 5 -1 9 5 9 5 0 31 42 57 92 26 51 51 96 57 99 5 4 6 12 3 18 -4 6 -3 11 1
11 12 0 34 61 26 73 -3 6 -1 7 5 3 10 -6 23 17 21 38 0 5 4 12 11 16 6 4 12
17 13 28 1 12 5 22 9 22 4 0 7 3 6 8 -1 4 4 21 11 37 7 17 14 37 16 45 2 8 4
16 5 18 2 1 3 6 4 11 0 5 4 13 9 17 4 4 7 17 7 30 0 12 4 24 9 26 5 2 12 17
15 33 3 17 14 60 25 97 11 38 17 68 13 68 -4 0 -2 4 4 8 7 4 14 23 17 42 3 19
8 46 11 60 4 14 9 39 11 55 3 17 8 37 10 45 2 8 7 33 10 55 3 22 8 58 11 80 3
22 7 65 9 95 2 30 4 55 5 55 7 0 11 113 11 300 2 260 -2 335 -16 335 -5 0 -4
4 4 9 8 5 10 14 5 22 -9 15 -14 57 -14 107 0 17 -3 32 -7 32 -4 0 -8 18 -7 40
0 22 -3 40 -7 40 -4 0 -5 9 -2 20 3 11 1 26 -4 33 -5 6 -11 30 -12 51 -2 22
-7 50 -12 63 -5 14 -9 36 -9 49 0 14 -3 23 -7 21 -5 -3 -9 11 -11 31 -1 20 -7
41 -12 46 -6 6 -10 23 -10 38 0 15 -4 28 -8 28 -5 0 -9 6 -10 13 -3 38 -33
127 -42 127 -5 0 -7 7 -4 15 4 8 1 15 -6 15 -6 0 -9 4 -6 8 3 5 -1 21 -9 35
-8 15 -14 30 -15 32 -1 11 -14 43 -36 93 -13 29 -24 57 -24 62 0 6 -4 10 -10
10 -5 0 -10 6 -10 14 0 17 -25 67 -31 61 -3 -2 -6 5 -6 17 -1 12 -6 24 -11 27
-5 3 -15 21 -23 39 -8 17 -16 32 -20 32 -3 0 -11 16 -19 35 -7 19 -17 32 -22
29 -4 -3 -8 4 -8 15 0 12 -4 21 -10 21 -5 0 -10 4 -10 10 0 9 -19 35 -47 65
-7 8 -13 18 -13 24 0 6 -4 11 -10 11 -5 0 -10 7 -10 16 0 8 -4 12 -10 9 -5 -3
-10 -1 -10 5 0 6 -6 18 -12 25 -7 7 -33 37 -58 66 -64 74 -147 157 -204 204
-27 22 -55 46 -62 53 -7 6 -15 12 -19 12 -3 0 -15 9 -27 20 -12 11 -28 20 -35
20 -8 0 -12 4 -9 9 3 5 -13 18 -37 30 -52 26 -80 43 -88 55 -4 5 -12 5 -18 2
-6 -4 -11 -3 -11 2 0 9 -81 49 -89 44 -2 -2 -7 0 -10 6 -6 9 -158 64 -216 78
-16 4 -37 9 -45 11 -30 7 -76 14 -115 18 -22 2 -42 4 -45 5 -16 6 -273 4 -276
-2z m-571 -4765 c-7 -2 -21 -2 -30 0 -10 3 -4 5 12 5 17 0 24 -2 18 -5z m1578
-71 c-7 -2 -7 -8 2 -17 7 -7 17 -10 22 -7 6 3 4 -2 -4 -11 -14 -18 -26 -23
-16 -8 3 5 -5 17 -17 25 -12 9 -23 22 -24 30 -2 12 2 13 23 3 14 -6 20 -13 14
-15z m-1467 10 c3 -5 -1 -9 -9 -9 -8 0 -12 4 -9 9 3 4 7 8 9 8 2 0 6 -4 9 -8z
m-282 -25 c-5 -7 -8 -20 -7 -29 5 -26 -22 -29 -38 -5 -16 25 -12 48 8 41 7 -3
16 0 20 5 3 6 11 9 16 5 6 -3 6 -10 1 -17z m228 19 c0 -2 -7 -7 -16 -10 -8 -3
-12 -2 -9 4 6 10 25 14 25 6z m-91 -49 c0 -9 -2 -8 -6 1 -2 6 -10 9 -15 6 -7
-4 -8 -2 -4 5 9 13 26 5 25 -12z m1375 7 c3 -8 2 -12 -4 -9 -6 3 -10 10 -10
16 0 14 7 11 14 -7z m-1259 -14 c3 -5 1 -10 -4 -10 -6 0 -11 5 -11 10 0 6 2
10 4 10 3 0 8 -4 11 -10z m-87 -35 c-3 -3 -9 2 -12 12 -6 14 -5 15 5 6 7 -7
10 -15 7 -18z m56 13 c-3 -4 -9 -8 -15 -8 -5 0 -9 4 -9 8 0 5 7 9 15 9 8 0 12
-4 9 -9z m1221 2 c3 -6 -1 -7 -9 -4 -18 7 -21 14 -7 14 6 0 13 -4 16 -10z m39
2 c3 -5 -1 -9 -9 -9 -8 0 -15 4 -15 9 0 4 4 8 9 8 6 0 12 -4 15 -8z m96 3 c0
-7 -30 -13 -34 -7 -3 4 4 9 15 9 10 1 19 0 19 -2z m180 1 c0 -3 -4 -8 -10 -11
-5 -3 -10 -1 -10 4 0 6 5 11 10 11 6 0 10 -2 10 -4z m-1505 -27 c-4 -5 -12 -9
-18 -8 -9 0 -8 2 1 6 6 2 9 10 6 15 -4 7 -2 8 5 4 6 -4 9 -12 6 -17z m1124 8
c-2 -1 -13 -9 -24 -17 -19 -14 -19 -14 -6 3 7 9 18 17 24 17 6 0 8 -1 6 -3z
m141 -7 c0 -5 -4 -10 -10 -10 -5 0 -10 5 -10 10 0 6 5 10 10 10 6 0 10 -4 10
-10z m-1045 -12 c5 4 5 1 1 -5 -10 -18 -23 -16 -30 3 -5 13 -4 14 7 6 8 -7 18
-8 22 -4z m-210 -12 c-17 -12 -45 -12 -45 1 0 3 7 3 15 0 8 -4 17 -2 20 3 4 6
11 10 18 10 6 0 2 -6 -8 -14z m96 -6 c6 0 8 4 5 8 -2 4 4 8 14 9 18 2 18 1 -1
-18 -10 -10 -19 -24 -19 -31 0 -6 -6 -3 -14 7 -8 11 -11 26 -8 34 4 10 7 11
10 3 2 -7 8 -12 13 -12z m205 8 c3 -4 -1 -5 -10 -4 -8 1 -18 5 -22 8 -3 4 1 5
10 4 8 -1 18 -5 22 -8z m87 -1 c3 -7 -3 -13 -14 -13 -13 0 -15 3 -7 13 6 7 12
13 13 13 2 0 5 -6 8 -13z m443 1 c4 -7 3 -8 -4 -4 -7 4 -12 2 -12 -5 0 -7 -3
-10 -6 -6 -6 5 3 27 11 27 2 0 7 -5 11 -12z m219 -6 c-3 -3 -11 0 -18 7 -9 10
-8 11 6 5 10 -3 15 -9 12 -12z m-347 -17 c-6 -14 -15 -25 -20 -25 -5 0 -1 11
8 25 9 14 18 25 20 25 2 0 -2 -11 -8 -25z m-243 7 c-3 -3 3 -11 13 -19 15 -11
13 -12 -10 -2 -31 13 -37 26 -13 26 8 0 13 -3 10 -5z m639 -8 c6 -15 4 -15
-11 -3 -10 7 -20 15 -22 16 -2 2 3 3 11 3 9 0 19 -7 22 -16z m-254 2 c0 -2 -7
-7 -16 -10 -8 -3 -12 -2 -9 4 6 10 25 14 25 6z m-502 -29 c7 -5 10 -13 7 -18
-4 -5 -13 -2 -21 6 -9 8 -20 12 -26 9 -6 -4 -8 -2 -5 4 8 11 25 11 45 -1z"/>
<path d="M1672 258 c-15 -15 -15 -28 0 -28 6 0 8 3 5 7 -4 3 -2 12 4 20 14 16
7 17 -9 1z"/>
<path d="M1745 340 c-3 -6 1 -7 9 -4 18 7 21 14 7 14 -6 0 -13 -4 -16 -10z"/>
<path d="M1773 323 c11 -10 -30 -34 -47 -27 -11 4 -16 0 -16 -12 0 -16 2 -17
10 -4 5 8 10 10 10 5 0 -22 38 -13 49 11 14 31 14 34 -1 34 -6 0 -8 -3 -5 -7z"/>
<path d="M3350 320 c-9 -6 -10 -10 -3 -10 6 0 15 5 18 10 8 12 4 12 -15 0z"/>
<path d="M1825 310 c-3 -5 0 -12 7 -16 6 -4 14 -2 16 4 2 7 9 9 15 5 7 -3 8
-2 4 2 -11 12 -36 15 -42 5z"/>
<path d="M3216 312 c-3 -5 1 -9 9 -9 8 0 12 4 9 9 -3 4 -7 8 -9 8 -2 0 -6 -4
-9 -8z"/>
<path d="M3455 311 c-3 -5 -2 -12 3 -15 5 -3 9 1 9 9 0 17 -3 19 -12 6z"/>
<path d="M1575 280 c-2 -3 7 -7 20 -8 13 -1 26 2 29 6 2 4 -7 7 -21 7 -14 0
-26 -2 -28 -5z"/>
<path d="M1565 240 c-3 -6 1 -7 9 -4 18 7 21 14 7 14 -6 0 -13 -4 -16 -10z"/>
<path d="M1712 230 c-4 -3 -8 -11 -10 -19 -3 -12 -1 -12 14 0 9 8 19 13 21 12
8 -7 45 -2 39 5 -9 8 -53 10 -64 2z"/>
<path d="M3515 230 c-3 -5 -3 -10 2 -10 4 0 1 -5 -7 -11 -12 -8 -12 -10 -1 -7
8 2 15 12 17 21 3 19 -2 22 -11 7z"/>
<path d="M1588 218 c5 -5 16 -8 23 -6 8 3 3 7 -10 11 -17 4 -21 3 -13 -5z"/>
<path d="M3345 189 c4 -12 3 -19 -2 -16 -15 10 -34 -9 -27 -27 6 -15 8 -15 21
4 10 14 22 20 34 17 15 -4 17 -2 9 13 -5 10 -17 20 -25 24 -13 5 -15 1 -10
-15z"/>
<path d="M1620 186 c0 -2 9 -6 20 -9 11 -3 18 -1 14 4 -5 9 -34 13 -34 5z"/>
<path d="M1670 180 c0 -5 5 -10 10 -10 6 0 10 5 10 10 0 6 -4 10 -10 10 -5 0
-10 -4 -10 -10z"/>
<path d="M3349 143 c-13 -16 -12 -17 4 -4 16 13 21 21 13 21 -2 0 -10 -8 -17
-17z"/>
<path d="M3390 150 c-9 -6 -10 -10 -3 -10 6 0 15 5 18 10 8 12 4 12 -15 0z"/>
<path d="M3426 138 c3 -5 10 -6 15 -3 13 9 11 12 -6 12 -8 0 -12 -4 -9 -9z"/>
<path d="M1771 124 c0 -11 3 -14 6 -6 3 7 2 16 -1 19 -3 4 -6 -2 -5 -13z"/>
<path d="M2079 134 c-1 -2 -2 -7 -3 -11 -1 -5 -4 -13 -8 -19 -10 -15 26 -11
45 5 9 7 18 8 21 3 3 -6 -1 -12 -9 -16 -17 -6 -20 -26 -4 -26 5 0 7 5 4 10 -6
10 5 13 35 11 11 0 11 1 2 5 -10 5 -10 9 3 18 13 9 11 11 -12 12 -16 1 -38 4
-50 7 -13 3 -24 4 -24 1z m31 -15 c0 -15 -18 -19 -23 -6 -3 8 1 14 9 14 8 0
14 -4 14 -8z"/>
<path d="M1900 126 c0 -2 7 -7 16 -10 8 -3 12 -2 9 4 -6 10 -25 14 -25 6z"/>
<path d="M3240 120 c-12 -7 -10 -9 8 -7 12 0 22 5 22 9 0 11 -12 10 -30 -2z"/>
<path d="M2580 100 c-6 -12 -9 -24 -6 -28 3 -3 6 0 6 6 0 7 5 12 10 12 6 0 9
-5 8 -11 -2 -6 3 -13 10 -14 7 -2 8 -1 2 2 -8 3 -8 9 0 18 7 9 6 16 -4 24 -12
10 -17 8 -26 -9z"/>
<path d="M2383 89 c7 -11 14 -14 18 -7 4 7 8 6 12 -3 3 -9 6 -10 6 -2 1 12
-16 26 -36 29 -9 2 -9 -2 0 -17z"/>
<path d="M2546 94 c-9 -24 -2 -26 12 -4 7 11 8 20 3 20 -5 0 -12 -7 -15 -16z"/>
<path d="M3120 106 c0 -2 7 -7 16 -10 8 -3 12 -2 9 4 -6 10 -25 14 -25 6z"/>
<path d="M2633 75 c0 -8 4 -12 9 -9 5 3 6 10 3 15 -9 13 -12 11 -12 -6z"/>
<path d="M2830 82 c0 -5 7 -9 15 -9 8 0 12 4 9 9 -3 4 -9 8 -15 8 -5 0 -9 -4
-9 -8z"/>
<path d="M3064 82 c4 -3 14 -7 22 -8 9 -1 13 0 10 4 -4 3 -14 7 -22 8 -9 1
-13 0 -10 -4z"/>
</g>
</svg>
